<?xml version="1.0" encoding="UTF-8"?>
<svg version="1.1" xmlns="http://www.w3.org/2000/svg" width="360" height="415">
<path d="M0 0 C118.8 0 237.6 0 360 0 C360 136.95 360 273.9 360 415 C241.2 415 122.4 415 0 415 C0 278.05 0 141.1 0 0 Z " fill="#FEFEFE" transform="translate(0,0)"/>
<path d="M0 0 C0.99 0.33 1.98 0.66 3 1 C3.65795898 2.69506836 3.65795898 2.69506836 4.05859375 4.90234375 C4.21440918 5.72202637 4.37022461 6.54170898 4.53076172 7.38623047 C4.68561035 8.24877441 4.84045898 9.11131836 5 10 C5.25354248 11.2068042 5.25354248 11.2068042 5.51220703 12.43798828 C8.89028182 28.60922028 9.53438322 44.52780898 9.67211914 60.98852539 C9.7497098 68.78527325 9.96306437 76.20659677 11.47869873 83.88464355 C13.3503064 95.06958661 13.15151554 106.6113673 13.1328125 117.91796875 C13.13348908 119.39235958 13.13446202 120.86675029 13.13571167 122.34114075 C13.13717065 125.402487 13.13509199 128.46380371 13.13037109 131.52514648 C13.12465962 135.4145577 13.12797333 139.30390009 13.13394356 143.19330883 C13.13758528 146.22793583 13.13639438 149.26254694 13.13381577 152.29717445 C13.13315724 153.73024822 13.13393648 155.16332352 13.13629532 156.59639549 C13.16451124 178.53216519 13.16451124 178.53216519 10.40625 189.12890625 C10.09816406 190.34900391 9.79007813 191.56910156 9.47265625 192.82617188 C9.15167969 194.05916016 8.83070312 195.29214844 8.5 196.5625 C6.29527967 205.05819941 4.44287315 213.21371308 4 222 C4.75667969 222.07130127 5.51335937 222.14260254 6.29296875 222.21606445 C14.59777056 223.0871399 20.88991843 226.16314652 28.13671875 229.99609375 C31.29564873 231.66611114 34.48067622 233.07488974 37.8125 234.375 C45.82283891 237.59666846 53.33445522 241.83610315 60.93847656 245.90185547 C74.26460824 253.00049832 88.08730272 259.22997657 101.8046875 265.52734375 C104.1677245 266.6164207 106.52679276 267.71234698 108.8828125 268.81640625 C109.54700195 269.12755371 110.21119141 269.43870117 110.89550781 269.75927734 C112.76145853 270.63425818 114.62684157 271.51044933 116.4921875 272.38671875 C118.84808107 273.47021991 121.22127877 274.51679654 123.609375 275.52734375 C126.63662806 276.84217601 129.47679787 278.3026616 132.375 279.875 C138.70947964 283.0859533 145.15468907 284.96034998 151.96484375 286.84375 C155.26579142 287.76259417 158.43423113 288.86961553 161.625 290.125 C168.24120132 292.60229912 175.03307797 293.91709799 182 295 C182.9796875 295.15339844 183.959375 295.30679687 184.96875 295.46484375 C187.57556478 295.68862152 189.48848912 295.73507636 192 295 C194.68009599 292.69779173 196.28342883 290.06067878 198 287 C198.38929688 286.40316406 198.77859375 285.80632812 199.1796875 285.19140625 C201.06868031 282.20624607 202.01213484 279.91542385 202.515625 276.40625 C204.01067476 270.15527123 209.00368621 266.28565194 213.5 262 C214.38042969 261.12988281 215.26085937 260.25976562 216.16796875 259.36328125 C222.69108124 253 222.69108124 253 225 253 C223.6752824 261.06104753 219.03206369 267.15598494 214.03125 273.41796875 C205.86122581 283.5212999 205.86122581 283.5212999 199.875 294.9375 C198.1930055 299.21750479 195.63606504 301.40256896 192.08984375 304.2421875 C189.90738142 306.07790348 188.10557433 308.02465852 186.25 310.1875 C185.6725 310.85136719 185.095 311.51523437 184.5 312.19921875 C182.89848302 314.07078955 182.89848302 314.07078955 181.25 316.5 C177.20521407 319.19652395 172.68685435 318.50879006 168 318 C165.0918237 317.39844048 162.26074852 316.68281032 159.41015625 315.8515625 C156.4031516 315.10067245 153.50725246 314.61984087 150.4453125 314.171875 C143.61379394 313.0669704 137.31149346 310.95777654 130.8125 308.625 C129.14670898 308.04492188 129.14670898 308.04492188 127.44726562 307.453125 C121.15963808 305.23702446 115.03771735 302.8251017 109 300 C108.37649658 299.71237793 107.75299316 299.42475586 107.1105957 299.12841797 C105.32084375 298.30015478 103.53538439 297.46263629 101.75 296.625 C100.4388823 296.01154728 99.12768301 295.39826891 97.81640625 294.78515625 C97.17203613 294.48367676 96.52766602 294.18219727 95.86376953 293.87158203 C86.40144638 289.44301179 86.40144638 289.44301179 76.85546875 285.19921875 C66.38263801 280.65401252 56.31425124 275.57361579 46.24902344 270.19189453 C36.20219666 264.86746896 25.93543278 259.97508034 15.64453125 255.14428711 C11.91988612 253.39455332 8.22475547 251.61169335 4.5625 249.734375 C1.36067271 247.85409192 1.36067271 247.85409192 -1 248 C-1.80581136 251.33007301 -2.59446306 254.66391316 -3.375 258 C-3.60832031 258.99717041 -3.84164062 259.99434082 -4.08203125 261.02172852 C-5.43804233 266.99306121 -6.43186428 272.84475952 -7 278.9375 C-8.08494878 288.62313369 -11.85347342 292.24793073 -19.078125 298.3046875 C-21.73124011 300.64503701 -23.79115794 303.23894743 -26 306 C-29.31606218 309.93782383 -29.31606218 309.93782383 -32.75 310.25 C-33.4925 310.1675 -34.235 310.085 -35 310 C-37.90491058 303.77778464 -37.43881595 297.36287388 -37.4375 290.625 C-37.43889984 289.94870544 -37.44029968 289.27241089 -37.44174194 288.57562256 C-37.41920962 275.39676342 -35.81660521 264.85325573 -28.12890625 253.83984375 C-26.42380146 251.06093595 -25.57517744 248.0980077 -24.67578125 244.98046875 C-24 243 -24 243 -22 240 C-21.34 240 -20.68 240 -20 240 C-18.29395941 236.89636071 -17.37799525 233.93327797 -16.5625 230.4921875 C-16.30726562 229.42226563 -16.05203125 228.35234375 -15.7890625 227.25 C-15.52867188 226.13625 -15.26828125 225.0225 -15 223.875 C-14.73960938 222.78445312 -14.47921875 221.69390625 -14.2109375 220.5703125 C-10.56929094 205.19447149 -8.8405564 190.87754376 -8.83203125 175.04296875 C-8.82880423 173.60923736 -8.82543918 172.17550628 -8.82194519 170.74177551 C-8.81599277 167.74556723 -8.81410095 164.7493876 -8.81469727 161.75317383 C-8.81477805 158.72902382 -8.80790633 155.70502681 -8.79418945 152.6809082 C-8.50424963 125.19154291 -8.50424963 125.19154291 -11.55688477 97.92211914 C-12.10965903 94.27685461 -12.13641128 90.68474202 -12.140625 87.0078125 C-12.15531999 85.41388438 -12.17166579 83.81997083 -12.18945312 82.22607422 C-12.19855713 81.39364197 -12.20766113 80.56120972 -12.21704102 79.70355225 C-12.46165029 60.56650076 -12.95909878 39.82005565 -18.82592773 21.40795898 C-19 19 -19 19 -17.36938477 16.68823242 C-16.56815186 15.91842041 -15.76691895 15.1486084 -14.94140625 14.35546875 C-14.08095703 13.51435547 -13.22050781 12.67324219 -12.33398438 11.80664062 C-11.41939453 10.94232422 -10.50480469 10.07800781 -9.5625 9.1875 C-8.65177734 8.30384766 -7.74105469 7.42019531 -6.80273438 6.50976562 C-4.54797136 4.32583286 -2.28043273 2.15706351 0 0 Z " fill="#049FE1" transform="translate(111,31)"/>
<path d="M0 0 C0 0.99 0 1.98 0 3 C-2.5 4.5 -2.5 4.5 -5 6 C-7.71594489 8.45200608 -10.2577424 11.06917905 -12.8125 13.6875 C-13.50537109 14.38939453 -14.19824219 15.09128906 -14.91210938 15.81445312 C-16.61271009 17.53851041 -18.30844661 19.26707278 -20 21 C-20 18 -20 18 -18.37939453 16.00708008 C-17.63802246 15.26868896 -16.89665039 14.53029785 -16.1328125 13.76953125 C-15.32972656 12.96708984 -14.52664063 12.16464844 -13.69921875 11.33789062 C-12.42498047 10.08782227 -12.42498047 10.08782227 -11.125 8.8125 C-10.28324219 7.96751953 -9.44148438 7.12253906 -8.57421875 6.25195312 C-2.26675999 0 -2.26675999 0 0 0 Z " fill="#24A6DE" transform="translate(336,284)"/>
</svg>
