<?xml version="1.0" encoding="UTF-8"?>
<svg version="1.1" xmlns="http://www.w3.org/2000/svg" width="360" height="415">
<path d="M0 0 C0.46341402 1.9154446 0.92036997 3.83245154 1.375 5.75 C1.63023438 6.81734375 1.88546875 7.8846875 2.1484375 8.984375 C2.43676672 10.32195985 2.7201295 11.66061974 3 13 C3.17499023 13.78810059 3.34998047 14.57620117 3.53027344 15.38818359 C5.70852247 26.45865178 5.40595691 37.7233354 5.53173828 48.96044922 C5.56577927 51.72639939 5.61078869 54.49203008 5.65625 57.2578125 C5.6615271 58.08725372 5.6668042 58.91669495 5.67224121 59.77127075 C5.75629222 64.79256106 6.39228936 69.42470921 7.43554688 74.33207703 C9.98354574 86.37535289 10.35703028 98.07589971 10.40625 110.33203125 C10.41190475 111.29411688 10.41755951 112.25620251 10.42338562 113.24744225 C10.45319981 118.34555491 10.47176221 123.443557 10.48046875 128.54174805 C10.48921512 132.70291441 10.51692868 136.86324602 10.5625 141.02416992 C11.02406945 183.98074208 11.02406945 183.98074208 4.71899414 202.68515015 C2.7383816 209.06186505 1.7102775 215.33638248 2 222 C2.9590625 221.91105469 3.918125 221.82210937 4.90625 221.73046875 C10.03400205 221.74459833 14.01443561 224.03055644 18.5 226.3125 C20.36829989 227.23345784 22.23679667 228.15401633 24.10546875 229.07421875 C25.07145996 229.55552246 26.03745117 230.03682617 27.03271484 230.53271484 C30.96075713 232.4750823 34.9176594 234.35378432 38.87670898 236.23193359 C48.98313293 241.02754732 59.0167036 245.95398219 69 251 C84.67822438 258.92142287 100.46218217 266.44721216 116.63110352 273.32373047 C121.47210509 275.39801774 126.19000683 277.58863815 130.8671875 280.01171875 C137.16303159 283.19598741 143.61148782 285.50824677 150.3125 287.6875 C151.49368408 288.07615234 152.67486816 288.46480469 153.8918457 288.86523438 C162.19254154 291.54335651 170.35106934 293.76278666 179 295 C179.88171875 295.12761719 180.7634375 295.25523437 181.671875 295.38671875 C183.44409367 295.62199606 185.22146735 295.81851708 187 296 C187.61875 295.01 188.2375 294.02 188.875 293 C189.57625 292.01 190.2775 291.02 191 290 C191.66 290 192.32 290 193 290 C193.268125 289.113125 193.53625 288.22625 193.8125 287.3125 C195 284 195 284 196.5 281.5625 C198.18374191 278.98580198 198.18374191 278.98580198 198.75 275.625 C200.37209448 270.920926 203.09046711 268.03357623 207 265 C207.66 265 208.32 265 209 265 C209.24878906 264.42765625 209.49757813 263.8553125 209.75390625 263.265625 C211.18425373 260.66499322 212.84664674 258.85253401 214.9375 256.75 C215.62714844 256.04359375 216.31679688 255.3371875 217.02734375 254.609375 C219 253 219 253 222 253 C221.68450989 262.93793838 217.30940049 268.1942938 211.1875 275.6875 C207.90723321 279.71844323 204.99399942 283.88401454 202.1875 288.25 C201.81455811 288.82838623 201.44161621 289.40677246 201.05737305 290.00268555 C199.44221124 292.55303739 197.98830264 295.02726852 196.796875 297.8046875 C193.96475402 302.84093742 190.05973226 306.73756864 186.0625 310.875 C185.27037109 311.75414062 184.47824219 312.63328125 183.66210938 313.5390625 C179.4772215 317.85462342 176.45116589 320.57742299 170.28125 320.7421875 C163.24526042 320.16256107 156.32754048 318.74830467 149.4375 317.25 C148.20064453 316.99734375 146.96378906 316.7446875 145.68945312 316.484375 C138.17684182 314.89524516 131.15184419 312.77112706 124 310 C122.80890625 309.60296875 121.6178125 309.2059375 120.390625 308.796875 C113.34113398 306.44704466 107.0090798 303.54114099 100.54272461 299.94677734 C95.54379487 297.19882766 90.44069447 295.15473751 85.08203125 293.19140625 C81.09014219 291.64828057 77.34945379 289.74958667 73.546875 287.79296875 C68.98624693 285.48754112 64.36960263 283.3092395 59.75 281.125 C49.42566811 276.23029195 39.20022774 271.15858041 29.01953125 265.97265625 C21.57316698 262.19478126 14.08336161 258.62415089 6.40234375 255.34545898 C2.52928011 253.69125418 -1.25168268 251.9202918 -5 250 C-4.938125 251.093125 -4.87625 252.18625 -4.8125 253.3125 C-4.8125 257.70927684 -5.88793858 261.36387481 -7.16796875 265.54296875 C-7.84649012 268.36217726 -8.25475563 270.93139544 -8.55078125 273.80078125 C-9.73442913 285.05546703 -11.20015866 291.31899563 -20 299 C-21.08995717 300.14904717 -22.16736178 301.3100847 -23.234375 302.48046875 C-24.36412585 303.69573795 -25.4943316 304.91058443 -26.625 306.125 C-27.15077637 306.70693115 -27.67655273 307.2888623 -28.21826172 307.88842773 C-31.26141174 311.02570067 -32.35885464 311.93961156 -36.8984375 312.3671875 C-37.92195313 312.24601562 -38.94546875 312.12484375 -40 312 C-41.45851731 305.88659378 -41.18600217 299.68985208 -41.18530273 293.4453125 C-41.18747935 291.27063123 -41.20563346 289.09646605 -41.22460938 286.921875 C-41.26883253 276.22302003 -40.20365551 267.50232745 -35 258 C-32.95321059 254.1437301 -31.16406157 250.71934687 -30.1875 246.4375 C-28.93471817 242.8110263 -28.37864229 242.33662328 -25.5625 240.0625 C-20.43850323 235.29845342 -20.30961814 228.82579333 -19.36669922 222.25732422 C-18.62116188 217.66795124 -17.46698582 213.1561449 -16.35668945 208.64331055 C-13.8654246 197.97373885 -13.84201257 187.04960165 -13.83203125 176.14453125 C-13.82870285 174.84464767 -13.82537445 173.5447641 -13.82194519 172.20549011 C-13.81600151 169.46323824 -13.81409992 166.72101761 -13.81469727 163.97875977 C-13.81477784 161.22446019 -13.80793814 158.47032938 -13.79418945 155.71606445 C-13.28650759 127.93433179 -13.28650759 127.93433179 -16.52218628 100.43521118 C-17.21687548 96.8946789 -17.19640266 93.35680778 -17.24609375 89.76171875 C-17.27908773 88.11913641 -17.31229826 86.47655841 -17.34570312 84.83398438 C-17.39259758 82.27860105 -17.43694268 79.72322754 -17.47680664 77.16772461 C-17.71024245 62.8666363 -18.90432342 49.0159908 -21.5625 34.9375 C-22.05126319 32.29316583 -22.52866125 29.64757711 -23 27 C-23.24234375 25.741875 -23.4846875 24.48375 -23.734375 23.1875 C-24 20 -24 20 -21.6875 17.0625 C-19 15 -19 15 -17 15 C-16.78085938 14.45859375 -16.56171875 13.9171875 -16.3359375 13.359375 C-14.55060026 10.20632327 -12.16338666 7.79506663 -9.625 5.25 C-9.14289063 4.74339844 -8.66078125 4.23679687 -8.1640625 3.71484375 C-5.1557484 0.68200535 -4.4582451 0 0 0 Z " fill="#111111" transform="translate(114,29)"/>
</svg>
